{"accessors":[{"bufferView":0,"byteOffset":0,"componentType":5126,"count":1204,"max":[0.01849667727947235,-0.026796922087669373,0.23420000076293945],"min":[-0.01650332286953926,-0.6351966857910156,-0.3741999864578247],"type":"VEC3"},{"bufferView":1,"byteOffset":0,"componentType":5126,"count":1204,"type":"VEC3"},{"bufferView":2,"byteOffset":0,"componentType":5125,"count":7200,"type":"SCALAR"}],"asset":{"generator":"VTK","version":"2.0"},"bufferViews":[{"buffer":0,"byteLength":14448,"byteOffset":0,"target":34962},{"buffer":1,"byteLength":14448,"byteOffset":0,"target":34962},{"buffer":2,"byteLength":28800,"byteOffset":0,"target":34963}],"buffers":[{"byteLength":14448,"uri":"data:application/octet-stream;base64,"},{"byteLength":14448,"uri":"data:application/octet-stream;base64,"},{"byteLength":28800,"uri":"data:application/octet-stream;base64,"}],"cameras":[{"perspective":{"aspectRatio":1.3333333333333333,"yfov":0.5235987755982988,"zfar":2.4505283284697046,"znear":1.0415605063418818},"type":"perspective"}],"materials":[{"pbrMetallicRoughness":{"baseColorFactor":[0.6588235294117647,0.9019607843137255,0.8117647058823529,0.55],"metallicFactor":0.0,"roughnessFactor":1.0}}],"meshes":[{"name":"mesh0","primitives":[{"attributes":{"NORMAL":1,"POSITION":0},"indices":2,"material":0,"mode":4}]}],"nodes":[{"matrix":[2.220446049250314e-16,-3.330669073875469e-16,1.0000000000000002,0.0,1.0,2.220446049250313e-16,-2.220446049250313e-16,0.0,-2.2204460492503128e-16,1.0000000000000002,3.3306690738754696e-16,0.0,0.0,0.0,0.0,1.0],"mesh":0,"name":"mesh0"},{"camera":0,"matrix":[1.0,-0.0,0.0,-0.0,0.0,1.0,0.0,0.0,0.0,0.0,1.0,-0.0,0.000996677204966545,-0.3309968039393425,1.5935540411187616,1.0],"name":"Camera Node"},{"children":[0,1],"name":"Renderer Node"}],"scene":0,"scenes":[{"name":"Layer 0","nodes":[2]}]}