{"accessors":[{"bufferView":0,"byteOffset":0,"componentType":5126,"count":2922,"max":[0.08266259729862213,-0.0004254680243320763,0.07078754156827927],"min":[0.02028054930269718,-0.006773018278181553,-0.07078754156827927],"type":"VEC3"},{"bufferView":1,"byteOffset":0,"componentType":5126,"count":2922,"type":"VEC3"},{"bufferView":2,"byteOffset":0,"componentType":5125,"count":17376,"type":"SCALAR"}],"asset":{"generator":"VTK","version":"2.0"},"bufferViews":[{"buffer":0,"byteLength":35064,"byteOffset":0,"target":34962},{"buffer":1,"byteLength":35064,"byteOffset":0,"target":34962},{"buffer":2,"byteLength":69504,"byteOffset":0,"target":34963}],"buffers":[{"byteLength":35064,"uri":"data:application/octet-stream;base64,"},{"byteLength":35064,"uri":"data:application/octet-stream;base64,"},{"byteLength":69504,"uri":"data:application/octet-stream;base64,"}],"cameras":[{"perspective":{"aspectRatio":1.3333333333333333,"yfov":0.5235987755982988,"zfar":0.4809369228505232,"znear":0.15526874292913787},"type":"perspective"}],"materials":[{"pbrMetallicRoughness":{"baseColorFactor":[0.6901960784313725,0.6901960784313725,0.6901960784313725,1.0],"metallicFactor":0.0,"roughnessFactor":1.0}}],"meshes":[{"name":"mesh0","primitives":[{"attributes":{"NORMAL":1,"POSITION":0},"indices":2,"material":0,"mode":4}]}],"nodes":[{"matrix":[2.220446049250314e-16,-3.330669073875469e-16,1.0000000000000002,0.0,1.0,2.220446049250313e-16,-2.220446049250313e-16,0.0,-2.2204460492503128e-16,1.0000000000000002,3.3306690738754696e-16,0.0,0.0,0.0,0.0,1.0],"mesh":0,"name":"mesh0"},{"camera":0,"matrix":[1.0,-0.0,0.0,-0.0,0.0,1.0,0.0,0.0,0.0,0.0,1.0,-0.0,0.051471573300659657,-0.0035992431512568146,0.2991272228788016,1.0],"name":"Camera Node"},{"children":[0,1],"name":"Renderer Node"}],"scene":0,"scenes":[{"name":"Layer 0","nodes":[2]}]}