{"accessors":[{"bufferView":0,"byteOffset":0,"componentType":5126,"count":5430,"max":[-0.03495456278324127,0.0005682738847099245,0.3002980351448059],"min":[-0.6355545520782471,-0.0005682738265022635,-0.3002980351448059],"type":"VEC3"},{"bufferView":1,"byteOffset":0,"componentType":5125,"count":32496,"type":"SCALAR"}],"asset":{"generator":"VTK","version":"2.0"},"bufferViews":[{"buffer":0,"byteLength":65160,"byteOffset":0,"target":34962},{"buffer":1,"byteLength":129984,"byteOffset":0,"target":34963}],"buffers":[{"byteLength":65160,"uri":"data:application/octet-stream;base64,"},{"byteLength":129984,"uri":"data:application/octet-stream;base64,"}],"cameras":[{"perspective":{"aspectRatio":1.3333333333333333,"yfov":0.5235987755982988,"zfar":2.417725366378656,"znear":1.0268640533697262},"type":"perspective"}],"materials":[{"pbrMetallicRoughness":{"baseColorFactor":[1.0,0.8509803921568627,0.23921568627450981,1.0],"metallicFactor":0.0,"roughnessFactor":1.0}}],"meshes":[{"name":"mesh0","primitives":[{"attributes":{"POSITION":0},"indices":1,"material":0,"mode":4}]}],"nodes":[{"matrix":[2.220446049250314e-16,-3.330669073875469e-16,1.0000000000000002,0.0,1.0,2.220446049250313e-16,-2.220446049250313e-16,0.0,-2.2204460492503128e-16,1.0000000000000002,3.3306690738754696e-16,0.0,0.0,0.0,0.0,1.0],"mesh":0,"name":"mesh0"},{"camera":0,"matrix":[1.0,0.0,0.0,-0.0,-0.0,1.0,-0.0,0.0,0.0,-0.0,1.0,-0.0,-0.33525455743074417,2.9103830456733704e-11,1.640865801321101,1.0],"name":"Camera Node"},{"children":[0,1],"name":"Renderer Node"}],"scene":0,"scenes":[{"name":"Layer 0","nodes":[2]}]}