{"accessors":[{"bufferView":0,"byteOffset":0,"componentType":5126,"count":7800,"max":[0.4446674883365631,-0.017925255000591278,0.3015626072883606],"min":[0.013338055461645126,-0.4370991885662079,-0.2995692789554596],"type":"VEC3"},{"bufferView":1,"byteOffset":0,"componentType":5126,"count":7800,"type":"VEC3"},{"bufferView":2,"byteOffset":0,"componentType":5126,"count":7800,"normalized":false,"type":"VEC2"},{"bufferView":3,"byteOffset":0,"componentType":5125,"count":43200,"type":"SCALAR"}],"asset":{"generator":"VTK","version":"2.0"},"bufferViews":[{"buffer":0,"byteLength":93600,"byteOffset":0,"target":34962},{"buffer":1,"byteLength":93600,"byteOffset":0,"target":34962},{"buffer":2,"byteLength":62400,"byteOffset":0,"target":34962},{"buffer":3,"byteLength":172800,"byteOffset":0,"target":34963},{"buffer":4,"byteLength":240,"byteOffset":0,"target":34962}],"buffers":[{"byteLength":93600,"uri":"data:application/octet-stream;base64,"},{"byteLength":93600,"uri":"data:application/octet-stream;base64,"},{"byteLength":62400,"uri":"data:application/octet-stream;base64,"},{"byteLength":172800,"uri":"data:application/octet-stream;base64,"},{"byteLength":240,"uri":"data:application/octet-stream;base64,"}],"cameras":[{"perspective":{"aspectRatio":1.3333333333333333,"yfov":0.5235987755982988,"zfar":2.4203277707620408,"znear":1.0282146425561076},"type":"perspective"}],"images":[{"bufferView":4,"mimeType":"image/png"}],"materials":[{"pbrMetallicRoughness":{"baseColorFactor":[0.6784313725490196,0.8470588235294118,0.9019607843137255,1.0],"baseColorTexture":{"index":0,"texCoord":0},"metallicFactor":0.0,"roughnessFactor":1.0}}],"meshes":[{"name":"mesh0","primitives":[{"attributes":{"NORMAL":1,"POSITION":0,"TEXCOORD_0":2},"indices":3,"material":0,"mode":4}]}],"nodes":[{"matrix":[2.220446049250314e-16,-3.330669073875469e-16,1.0000000000000002,0.0,1.0,2.220446049250313e-16,-2.220446049250313e-16,0.0,-2.2204460492503128e-16,1.0000000000000002,3.3306690738754696e-16,0.0,0.0,0.0,0.0,1.0],"mesh":0,"name":"mesh0"},{"camera":0,"matrix":[1.0,-0.0,0.0,-0.0,0.0,1.0,0.0,0.0,0.0,0.0,1.0,-0.0,0.22900277189910412,-0.22751222178339958,1.6437652190843381,1.0],"name":"Camera Node"},{"children":[0,1],"name":"Renderer Node"}],"samplers":[{"magFilter":9728,"minFilter":9728,"wrapS":33071,"wrapT":33071}],"scene":0,"scenes":[{"name":"Layer 0","nodes":[2]}],"textures":[{"sampler":0,"source":0}]}