{"accessors":[{"bufferView":0,"byteOffset":0,"componentType":5126,"count":1204,"max":[0.02221355028450489,0.6353997588157654,0.3040378987789154],"min":[-0.02021322399377823,0.027263816446065903,-0.3040378987789154],"type":"VEC3"},{"bufferView":1,"byteOffset":0,"componentType":5126,"count":1204,"type":"VEC3"},{"bufferView":2,"byteOffset":0,"componentType":5125,"count":7200,"type":"SCALAR"}],"asset":{"generator":"VTK","version":"2.0"},"bufferViews":[{"buffer":0,"byteLength":14448,"byteOffset":0,"target":34962},{"buffer":1,"byteLength":14448,"byteOffset":0,"target":34962},{"buffer":2,"byteLength":28800,"byteOffset":0,"target":34963}],"buffers":[{"byteLength":14448,"uri":"data:application/octet-stream;base64,"},{"byteLength":14448,"uri":"data:application/octet-stream;base64,"},{"byteLength":28800,"uri":"data:application/octet-stream;base64,"}],"cameras":[{"perspective":{"aspectRatio":1.3333333333333333,"yfov":0.5235987755982988,"zfar":2.4499625529803675,"znear":1.041727281305616},"type":"perspective"}],"materials":[{"pbrMetallicRoughness":{"baseColorFactor":[0.4196078431372549,0.796078431372549,0.4666666666666667,0.55],"metallicFactor":0.0,"roughnessFactor":1.0}}],"meshes":[{"name":"mesh0","primitives":[{"attributes":{"NORMAL":1,"POSITION":0},"indices":2,"material":0,"mode":4}]}],"nodes":[{"matrix":[2.220446049250314e-16,-3.330669073875469e-16,1.0000000000000002,0.0,1.0,2.220446049250313e-16,-2.220446049250313e-16,0.0,-2.2204460492503128e-16,1.0000000000000002,3.3306690738754696e-16,0.0,0.0,0.0,0.0,1.0],"mesh":0,"name":"mesh0"},{"camera":0,"matrix":[1.0,0.0,0.0,-0.0,0.0,1.0,0.0,0.0,0.0,0.0,1.0,-0.0,0.0010001631453633308,0.33133178763091564,1.6633966665410684,1.0],"name":"Camera Node"},{"children":[0,1],"name":"Renderer Node"}],"scene":0,"scenes":[{"name":"Layer 0","nodes":[2]}]}