{"accessors":[{"bufferView":0,"byteOffset":0,"componentType":5126,"count":200,"max":[0.9004172682762146,0.8936365246772766,0.0010652414057403803],"min":[-0.44311195611953735,-0.42842715978622437,-0.0010652414057403803],"type":"VEC3"},{"bufferView":1,"byteOffset":0,"componentType":5126,"count":200,"normalized":false,"type":"VEC2"},{"bufferView":2,"byteOffset":0,"componentType":5125,"count":200,"type":"SCALAR"}],"asset":{"generator":"VTK","version":"2.0"},"bufferViews":[{"buffer":0,"byteLength":2400,"byteOffset":0,"target":34962},{"buffer":1,"byteLength":1600,"byteOffset":0,"target":34962},{"buffer":2,"byteLength":800,"byteOffset":0,"target":34963},{"buffer":3,"byteLength":271,"byteOffset":0,"target":34962}],"buffers":[{"byteLength":2400,"uri":"data:application/octet-stream;base64,"},{"byteLength":1600,"uri":"data:application/octet-stream;base64,"},{"byteLength":800,"uri":"data:application/octet-stream;base64,"},{"byteLength":271,"uri":"data:application/octet-stream;base64,"}],"cameras":[{"perspective":{"aspectRatio":1.3333333333333333,"yfov":0.5235987755982988,"zfar":3.940494936825596,"znear":3.4107516483809976},"type":"perspective"}],"images":[{"bufferView":3,"mimeType":"image/png"}],"materials":[{"pbrMetallicRoughness":{"baseColorFactor":[0.6784313725490196,0.8470588235294118,0.9019607843137255,1.0],"baseColorTexture":{"index":0,"texCoord":0},"metallicFactor":0.0,"roughnessFactor":1.0}}],"meshes":[{"name":"mesh0","primitives":[{"attributes":{"POSITION":0,"TEXCOORD_0":1},"indices":2,"material":0,"mode":0}]}],"nodes":[{"matrix":[2.220446049250314e-16,-3.330669073875469e-16,1.0000000000000002,0.0,1.0,2.220446049250313e-16,-2.220446049250313e-16,0.0,-2.2204460492503128e-16,1.0000000000000002,3.3306690738754696e-16,0.0,0.0,0.0,0.0,1.0],"mesh":0,"name":"mesh0"},{"camera":0,"matrix":[1.0,0.0,0.0,-0.0,0.0,1.0,0.0,0.0,0.0,0.0,1.0,-0.0,0.22865265607833862,0.23260468244552612,3.6413880180179863,1.0],"name":"Camera Node"},{"children":[0,1],"name":"Renderer Node"}],"samplers":[{"magFilter":9728,"minFilter":9728,"wrapS":33071,"wrapT":33071}],"scene":0,"scenes":[{"name":"Layer 0","nodes":[2]}],"textures":[{"sampler":0,"source":0}]}