{"accessors":[{"bufferView":0,"byteOffset":0,"componentType":5126,"count":903,"max":[0.002197741996496916,0.6313298940658569,0.29999762773513794],"min":[-0.0001974142505787313,0.03133351728320122,-0.29999762773513794],"type":"VEC3"},{"bufferView":1,"byteOffset":0,"componentType":5125,"count":1804,"type":"SCALAR"}],"asset":{"generator":"VTK","version":"2.0"},"bufferViews":[{"buffer":0,"byteLength":10836,"byteOffset":0,"target":34962},{"buffer":1,"byteLength":7216,"byteOffset":0,"target":34963}],"buffers":[{"byteLength":10836,"uri":"data:application/octet-stream;base64,"},{"byteLength":7216,"uri":"data:application/octet-stream;base64,"}],"cameras":[{"perspective":{"aspectRatio":1.3333333333333333,"yfov":0.5235987755982988,"zfar":2.4153080257454334,"znear":1.0258380494634534},"type":"perspective"}],"materials":[{"pbrMetallicRoughness":{"baseColorFactor":[0.4196078431372549,0.796078431372549,0.4666666666666667,1.0],"metallicFactor":0.0,"roughnessFactor":1.0}}],"meshes":[{"name":"mesh0","primitives":[{"attributes":{"POSITION":0},"indices":1,"material":0,"mode":1}]}],"nodes":[{"matrix":[2.220446049250314e-16,-3.330669073875469e-16,1.0000000000000002,0.0,1.0,2.220446049250313e-16,-2.220446049250313e-16,0.0,-2.2204460492503128e-16,1.0000000000000002,3.3306690738754696e-16,0.0,0.0,0.0,0.0,1.0],"mesh":0,"name":"mesh0"},{"camera":0,"matrix":[1.0,0.0,0.0,-0.0,0.0,1.0,0.0,0.0,0.0,0.0,1.0,-0.0,0.0010001638729590923,0.3313317056745291,1.6392255845013919,1.0],"name":"Camera Node"},{"children":[0,1],"name":"Renderer Node"}],"scene":0,"scenes":[{"name":"Layer 0","nodes":[2]}]}