{"accessors":[{"bufferView":0,"byteOffset":0,"componentType":5126,"count":903,"max":[-0.021189285442233086,0.44271260499954224,0.2999958395957947],"min":[-0.44629260897636414,0.01928805559873581,-0.2999958395957947],"type":"VEC3"},{"bufferView":1,"byteOffset":0,"componentType":5125,"count":1804,"type":"SCALAR"}],"asset":{"generator":"VTK","version":"2.0"},"bufferViews":[{"buffer":0,"byteLength":10836,"byteOffset":0,"target":34962},{"buffer":1,"byteLength":7216,"byteOffset":0,"target":34963}],"buffers":[{"byteLength":10836,"uri":"data:application/octet-stream;base64,"},{"byteLength":7216,"uri":"data:application/octet-stream;base64,"}],"cameras":[{"perspective":{"aspectRatio":1.3333333333333333,"yfov":0.5235987755982988,"zfar":2.4152983519687217,"znear":1.0258365413161357},"type":"perspective"}],"materials":[{"pbrMetallicRoughness":{"baseColorFactor":[1.0,0.4196078431372549,0.4196078431372549,1.0],"metallicFactor":0.0,"roughnessFactor":1.0}}],"meshes":[{"name":"mesh0","primitives":[{"attributes":{"POSITION":0},"indices":1,"material":0,"mode":1}]}],"nodes":[{"matrix":[2.220446049250314e-16,-3.330669073875469e-16,1.0000000000000002,0.0,1.0,2.220446049250313e-16,-2.220446049250313e-16,0.0,-2.2204460492503128e-16,1.0000000000000002,3.3306690738754696e-16,0.0,0.0,0.0,0.0,1.0],"mesh":0,"name":"mesh0"},{"camera":0,"matrix":[1.0,0.0,0.0,-0.0,-0.0,1.0,-0.0,0.0,0.0,-0.0,1.0,-0.0,-0.2337409472092986,0.23100033029913902,1.6392204667795627,1.0],"name":"Camera Node"},{"children":[0,1],"name":"Renderer Node"}],"scene":0,"scenes":[{"name":"Layer 0","nodes":[2]}]}