{"accessors":[{"bufferView":0,"byteOffset":0,"componentType":5126,"count":903,"max":[0.6364433765411377,0.0017337565077468753,0.30099591612815857],"min":[0.036455441266298294,-0.001729269279167056,-0.29900258779525757],"type":"VEC3"},{"bufferView":1,"byteOffset":0,"componentType":5125,"count":1804,"type":"SCALAR"}],"asset":{"generator":"VTK","version":"2.0"},"bufferViews":[{"buffer":0,"byteLength":10836,"byteOffset":0,"target":34962},{"buffer":1,"byteLength":7216,"byteOffset":0,"target":34963}],"buffers":[{"byteLength":10836,"uri":"data:application/octet-stream;base64,"},{"byteLength":7216,"uri":"data:application/octet-stream;base64,"}],"cameras":[{"perspective":{"aspectRatio":1.3333333333333333,"yfov":0.5235987755982988,"zfar":2.415312122418393,"znear":1.025834844548685},"type":"perspective"}],"materials":[{"pbrMetallicRoughness":{"baseColorFactor":[0.7803921568627451,0.49019607843137253,1.0,1.0],"metallicFactor":0.0,"roughnessFactor":1.0}}],"meshes":[{"name":"mesh0","primitives":[{"attributes":{"POSITION":0},"indices":1,"material":0,"mode":1}]}],"nodes":[{"matrix":[2.220446049250314e-16,-3.330669073875469e-16,1.0000000000000002,0.0,1.0,2.220446049250313e-16,-2.220446049250313e-16,0.0,-2.2204460492503128e-16,1.0000000000000002,3.3306690738754696e-16,0.0,0.0,0.0,0.0,1.0],"mesh":0,"name":"mesh0"},{"camera":0,"matrix":[1.0,0.0,0.0,-0.0,0.0,1.0,0.0,0.0,0.0,0.0,1.0,-0.0,0.336449408903718,2.2436142899096012e-06,1.6402222762396665,1.0],"name":"Camera Node"},{"children":[0,1],"name":"Renderer Node"}],"scene":0,"scenes":[{"name":"Layer 0","nodes":[2]}]}