{"accessors":[{"bufferView":0,"byteOffset":0,"componentType":5126,"count":24040,"max":[0.5377277731895447,0.5386890172958374,0.2525683641433716],"min":[-0.5439709424972534,-0.5376675128936768,-0.27690762281417847],"type":"VEC3"},{"bufferView":1,"byteOffset":0,"componentType":5126,"count":24040,"normalized":false,"type":"VEC2"},{"bufferView":2,"byteOffset":0,"componentType":5125,"count":48000,"type":"SCALAR"}],"asset":{"generator":"VTK","version":"2.0"},"bufferViews":[{"buffer":0,"byteLength":288480,"byteOffset":0,"target":34962},{"buffer":1,"byteLength":192320,"byteOffset":0,"target":34962},{"buffer":2,"byteLength":192000,"byteOffset":0,"target":34963},{"buffer":3,"byteLength":271,"byteOffset":0,"target":34962}],"buffers":[{"byteLength":288480,"uri":"data:application/octet-stream;base64,"},{"byteLength":192320,"uri":"data:application/octet-stream;base64,"},{"byteLength":192000,"uri":"data:application/octet-stream;base64,"},{"byteLength":271,"uri":"data:application/octet-stream;base64,"}],"cameras":[{"perspective":{"aspectRatio":1.3333333333333333,"yfov":0.5235987755982988,"zfar":3.8303545519631492,"znear":2.562347766884459},"type":"perspective"}],"images":[{"bufferView":3,"mimeType":"image/png"}],"materials":[{"pbrMetallicRoughness":{"baseColorFactor":[0.6784313725490196,0.8470588235294118,0.9019607843137255,1.0],"baseColorTexture":{"index":0,"texCoord":0},"metallicFactor":0.0,"roughnessFactor":1.0}}],"meshes":[{"name":"mesh0","primitives":[{"attributes":{"POSITION":0,"TEXCOORD_0":1},"indices":2,"material":0,"mode":1}]}],"nodes":[{"matrix":[2.220446049250314e-16,-3.330669073875469e-16,1.0000000000000002,0.0,1.0,2.220446049250313e-16,-2.220446049250313e-16,0.0,-2.2204460492503128e-16,1.0000000000000002,3.3306690738754696e-16,0.0,0.0,0.0,0.0,1.0],"mesh":0,"name":"mesh0"},{"camera":0,"matrix":[1.0,0.0,0.0,-0.0,-0.0,1.0,-0.0,0.0,0.0,-0.0,1.0,-0.0,-0.00312158465385437,0.0005107522010803223,3.1082105463284564,1.0],"name":"Camera Node"},{"children":[0,1],"name":"Renderer Node"}],"samplers":[{"magFilter":9728,"minFilter":9728,"wrapS":33071,"wrapT":33071}],"scene":0,"scenes":[{"name":"Layer 0","nodes":[2]}],"textures":[{"sampler":0,"source":0}]}