{"accessors":[{"bufferView":0,"byteOffset":0,"componentType":5126,"count":903,"max":[0.4441153109073639,-0.0184017401188612,0.3009956181049347],"min":[0.01389024592936039,-0.4366227090358734,-0.2990022599697113],"type":"VEC3"},{"bufferView":1,"byteOffset":0,"componentType":5125,"count":1804,"type":"SCALAR"}],"asset":{"generator":"VTK","version":"2.0"},"bufferViews":[{"buffer":0,"byteLength":10836,"byteOffset":0,"target":34962},{"buffer":1,"byteLength":7216,"byteOffset":0,"target":34963}],"buffers":[{"byteLength":10836,"uri":"data:application/octet-stream;base64,"},{"byteLength":7216,"uri":"data:application/octet-stream;base64,"}],"cameras":[{"perspective":{"aspectRatio":1.3333333333333333,"yfov":0.5235987755982988,"zfar":2.415316098156099,"znear":1.0258401096496474},"type":"perspective"}],"materials":[{"pbrMetallicRoughness":{"baseColorFactor":[0.30196078431372547,0.5882352941176471,1.0,1.0],"metallicFactor":0.0,"roughnessFactor":1.0}}],"meshes":[{"name":"mesh0","primitives":[{"attributes":{"POSITION":0},"indices":1,"material":0,"mode":1}]}],"nodes":[{"matrix":[2.220446049250314e-16,-3.330669073875469e-16,1.0000000000000002,0.0,1.0,2.220446049250313e-16,-2.220446049250313e-16,0.0,-2.2204460492503128e-16,1.0000000000000002,3.3306690738754696e-16,0.0,0.0,0.0,0.0,1.0],"mesh":0,"name":"mesh0"},{"camera":0,"matrix":[1.0,-0.0,0.0,-0.0,0.0,1.0,0.0,0.0,0.0,0.0,1.0,-0.0,0.22900277841836214,-0.2275122245773673,1.6402269804150058,1.0],"name":"Camera Node"},{"children":[0,1],"name":"Renderer Node"}],"scene":0,"scenes":[{"name":"Layer 0","nodes":[2]}]}