{"accessors":[{"bufferView":0,"byteOffset":0,"componentType":5126,"count":1204,"max":[0.4609234035015106,-0.0012736254138872027,0.3050491511821747],"min":[-0.0029178473632782698,-0.4537508189678192,-0.30305561423301697],"type":"VEC3"},{"bufferView":1,"byteOffset":0,"componentType":5126,"count":1204,"type":"VEC3"},{"bufferView":2,"byteOffset":0,"componentType":5125,"count":7200,"type":"SCALAR"}],"asset":{"generator":"VTK","version":"2.0"},"bufferViews":[{"buffer":0,"byteLength":14448,"byteOffset":0,"target":34962},{"buffer":1,"byteLength":14448,"byteOffset":0,"target":34962},{"buffer":2,"byteLength":28800,"byteOffset":0,"target":34963}],"buffers":[{"byteLength":14448,"uri":"data:application/octet-stream;base64,"},{"byteLength":14448,"uri":"data:application/octet-stream;base64,"},{"byteLength":28800,"uri":"data:application/octet-stream;base64,"}],"cameras":[{"perspective":{"aspectRatio":1.3333333333333333,"yfov":0.5235987755982988,"zfar":2.5041168036508195,"znear":1.0944834718292336},"type":"perspective"}],"materials":[{"pbrMetallicRoughness":{"baseColorFactor":[0.30196078431372547,0.5882352941176471,1.0,0.55],"metallicFactor":0.0,"roughnessFactor":1.0}}],"meshes":[{"name":"mesh0","primitives":[{"attributes":{"NORMAL":1,"POSITION":0},"indices":2,"material":0,"mode":4}]}],"nodes":[{"matrix":[2.220446049250314e-16,-3.330669073875469e-16,1.0000000000000002,0.0,1.0,2.220446049250313e-16,-2.220446049250313e-16,0.0,-2.2204460492503128e-16,1.0000000000000002,3.3306690738754696e-16,0.0,0.0,0.0,0.0,1.0],"mesh":0,"name":"mesh0"},{"camera":0,"matrix":[1.0,-0.0,0.0,-0.0,0.0,1.0,0.0,0.0,0.0,0.0,1.0,-0.0,0.22900277806911618,-0.2275122221908532,1.7177116305123052,1.0],"name":"Camera Node"},{"children":[0,1],"name":"Renderer Node"}],"scene":0,"scenes":[{"name":"Layer 0","nodes":[2]}]}